<svg width="417" height="339" xmlns="http://www.w3.org/2000/svg" xmlns:xlink="http://www.w3.org/1999/xlink" xml:space="preserve" overflow="hidden"><defs><clipPath id="clip0"><rect x="1819" y="681" width="417" height="339"/></clipPath></defs><g clip-path="url(#clip0)" transform="translate(-1819 -681)"><path d="M0 0 168.438 92.8125" stroke="#121212" stroke-width="27.5" stroke-miterlimit="8" fill="none" fill-rule="evenodd" transform="matrix(1 0 0 -1 1912 787.813)"/><path d="M0 0 168.438 92.8125" stroke="#121212" stroke-width="27.5" stroke-miterlimit="8" fill="none" fill-rule="evenodd" transform="matrix(1 0 0 -1 1902 874.813)"/><path d="M0 0 168.438 92.8125" stroke="#121212" stroke-width="27.5" stroke-miterlimit="8" fill="none" fill-rule="evenodd" transform="matrix(1 0 0 -1 1990 920.813)"/><path d="M0 0 168.438 92.8125" stroke="#121212" stroke-width="27.5" stroke-miterlimit="8" fill="none" fill-rule="evenodd" transform="matrix(1 0 0 -1 1976 1004.81)"/><path d="M0 0 90.5862 49.9147" stroke="#121212" stroke-width="27.5" stroke-miterlimit="8" fill="none" fill-rule="evenodd" transform="matrix(1 0 0 -1 1828 745.915)"/><path d="M2067 694 2157.59 744.875" stroke="#121212" stroke-width="27.5" stroke-miterlimit="8" fill="none" fill-rule="evenodd"/><path d="M2058 782 2221.98 879.281" stroke="#121212" stroke-width="27.5" stroke-miterlimit="8" fill="none" fill-rule="evenodd"/><path d="M2131 912 2209.62 957.374" stroke="#121212" stroke-width="27.5" stroke-miterlimit="8" fill="none" fill-rule="evenodd"/><path d="M2060 959 2139.91 1003.88" stroke="#121212" stroke-width="27.5" stroke-miterlimit="8" fill="none" fill-rule="evenodd"/><path d="M1976 828 2066.59 878.875" stroke="#121212" stroke-width="27.5" stroke-miterlimit="8" fill="none" fill-rule="evenodd"/><path d="M1905 696 1995.41 745.414" stroke="#121212" stroke-width="27.5" stroke-miterlimit="8" fill="none" fill-rule="evenodd"/><path d="M1836 737 1926.59 787.875" stroke="#121212" stroke-width="27.5" stroke-miterlimit="8" fill="none" fill-rule="evenodd"/><path d="M1903 957 1988.59 1005.07" stroke="#121212" stroke-width="27.5" stroke-miterlimit="8" fill="none" fill-rule="evenodd"/><path d="M1827 818 2002 921.816" stroke="#121212" stroke-width="27.5" stroke-miterlimit="8" fill="none" fill-rule="evenodd"/><path d="M0 0 2.99793 95.5271" stroke="#121212" stroke-width="27.5" stroke-miterlimit="8" fill="none" fill-rule="evenodd" transform="matrix(-1 0 0 1 2214 868)"/><path d="M0 0 90.5862 49.9147" stroke="#121212" stroke-width="27.5" stroke-miterlimit="8" fill="none" fill-rule="evenodd" transform="matrix(1 0 0 -1 2127 1003.91)"/><path d="M0 0 1.24797 95.2243" stroke="#121212" stroke-width="27.5" stroke-miterlimit="8" fill="none" fill-rule="evenodd" transform="matrix(-1 0 0 1 2151.25 734)"/><path d="M0 0 1.37283 95.2243" stroke="#121212" stroke-width="27.5" stroke-miterlimit="8" fill="none" fill-rule="evenodd" transform="matrix(-1 0 0 1 1835.37 734)"/><path d="M0 0 1.37283 95.2243" stroke="#121212" stroke-width="27.5" stroke-miterlimit="8" fill="none" fill-rule="evenodd" transform="matrix(-1 0 0 1 1911.37 874)"/></g></svg>