<!-- icon666.com - MILLIONS vector ICONS FREE --><svg viewBox="0 0 32 32" xmlns="http://www.w3.org/2000/svg"><g id="Layer_3" data-name="Layer 3"><path d="m30 8a2 2 0 0 0 -.56-1.38 2 2 0 0 0 -1.44-.62h-24a2 2 0 0 0 -1.38.56 2 2 0 0 0 -.62 1.44v16a2 2 0 0 0 .56 1.38 2 2 0 0 0 1.44.62h24a2 2 0 0 0 1.38-.56 2 2 0 0 0 .62-1.44zm-26 1.45 6.59 6.55-6.59 6.62zm12 9.17-10.59-10.62h21.18zm-4-1.17 3.3 3.3a1 1 0 0 0 .7.25 1 1 0 0 0 .71-.3l3.29-3.25 6.59 6.55h-21.18zm9.41-1.45 6.59-6.55v13.17z"></path></g></svg>